<svg xmlns="http://www.w3.org/2000/svg" width="24" height="24" viewBox="0 0 24 24">
    <g fill="none" fill-rule="evenodd">
        <path fill-rule="nonzero" d="M0 0h24v24H0z"/>
        <path fill="#182F6E" d="M5.722 19.786A10.025 10.025 0 0 0 12 22a9.894 9.894 0 0 0 6.274-2.211A10.003 10.003 0 0 0 11.232 2.03a10 10 0 0 0-5.51 17.756zM12 4.332c3.062-.001 5.856 1.62 7.195 4.173 1.339 2.554.988 5.593-.903 7.826-.492-1.886-3.122-3.328-6.292-3.328-3.172 0-5.8 1.442-6.292 3.329-1.891-2.234-2.241-5.273-.902-7.827C6.145 5.951 8.938 4.331 12 4.332zm.746 7.581a3.249 3.249 0 1 0-1.493-6.324 3.249 3.249 0 0 0 1.493 6.324z"/>
    </g>
</svg>
