<svg xmlns="http://www.w3.org/2000/svg" width="24" height="24" viewBox="0 0 24 24">
    <g fill="none" fill-rule="evenodd">
        <path d="M0 0h24v24H0z"/>
        <path fill="#182F6E" d="M23.475 9.479a.303.303 0 0 0-.288-.21h-8.292l-2.562-7.885c-.078-.245-.492-.245-.57 0l-2.562 7.89H.903a.303.303 0 0 0-.18.546l6.708 4.878-2.562 7.89a.302.302 0 0 0 .108.336.297.297 0 0 0 .354 0l6.714-4.89 6.708 4.873a.32.32 0 0 0 .174.06c.06 0 .126-.018.174-.06a.302.302 0 0 0 .108-.337l-2.562-7.89 6.708-4.877a.28.28 0 0 0 .12-.325z"/>
    </g>
</svg>
