<svg xmlns="http://www.w3.org/2000/svg" width="24" height="24" viewBox="0 0 24 24">
    <g fill="none" fill-rule="evenodd">
        <path d="M0 0h24v24H0z"/>
        <path fill="#182F6E" d="M16.165 14.377l5.59 5.589c.893.919-.87 2.682-1.79 1.788l-5.588-5.589c-3.08 2.21-7.378 1.888-10.086-.82a7.811 7.811 0 0 1 0-11.054 7.811 7.811 0 0 1 11.054 0c2.708 2.708 3.03 7.005.82 10.086zM5.675 5.676c-2.234 2.26-2.234 5.894 0 8.128 2.262 2.261 5.895 2.261 8.13 0 2.26-2.234 2.26-5.867 0-8.128-2.235-2.235-5.868-2.235-8.13 0z"/>
    </g>
</svg>
