<svg xmlns="http://www.w3.org/2000/svg" width="29" height="29" viewBox="0 0 29 29">
    <path fill="#182F6E" fill-rule="evenodd" d="M25.553 0H3.447A3.443 3.443 0 0 0 0 3.44v22.12C0 27.46 1.543 29 3.447 29h22.106A3.443 3.443 0 0 0 29 25.56V3.44C29 1.54 27.457 0 25.553 0zm-4.709 4.53c0-.5.406-.905.906-.905h2.718c.501 0 .907.406.907.906v2.72c0 .5-.406.905-.907.905H21.75a.906.906 0 0 1-.906-.906V4.53zm-6.31 4.44c3.08 0 5.577 2.491 5.577 5.564s-2.497 5.563-5.577 5.563-5.577-2.49-5.577-5.563c0-3.073 2.497-5.564 5.577-5.564zM26.28 25.375c0 .5-.405.906-.906.906H3.625a.907.907 0 0 1-.906-.906V11.78h3.625c-.472.68-.632 1.947-.632 2.753 0 4.852 3.958 8.8 8.822 8.8 4.864 0 8.822-3.948 8.822-8.8 0-.806-.114-2.054-.7-2.753h3.625v13.594z"/>
</svg>
