<svg xmlns="http://www.w3.org/2000/svg" width="367" height="92" viewBox="0 0 367 92">
    <g fill="none" fill-rule="evenodd">
        <path d="M0-9h368v110H0z"/>
        <path fill="#182F6E" d="M39.83 44.313h39.753l-8.92 37.72c-5.882 4.163-17.926 9.701-33.168 9.96-21.433.36-39.888-13.18-37.241-37.772C5.692 3.59 73.244-4.036 82 33.786L56.4 40.2c-4.596-12.8-25.305-3.892-27.895 12.634-3.673 23.641 20.412 19.445 21.849 9.678h-14.86l4.336-18.2zM85.686 35H112L99.366 89H73l12.686-54zm40.138-35H152l-20.795 89H105l20.824-89zM118 13.025l-3.012 12.853L87 33l4.71-20 26.29.025zm214.245 17.927c13.324 0 27.665 8.466 26.41 26.853-.292 4.739-1.137 6.215-1.446 7.526l-38.415-.003.009.014c-1.145 4.367.473 9.212 6.136 9.212 3.355 0 6.842-1.776 9.154-4.793l20.655 3.638c-3.642 10.793-18.935 18.596-30.881 18.596-24.534 0-27.693-18.573-26.364-28.085v-.15c.483-3.51 2.704-10.1 2.728-10.156l-5.545-.003-8.483 35.584h-26.426l8.355-35.584h-4.838l-8.437 35.584h-26.413l8.412-35.584h-7.478c.069 1.322.181 2.79.093 4.224-.295 4.743-1.133 6.171-1.48 7.481l-38.401.055c-1.148 4.358.458 9.223 6.13 9.223 3.37 0 6.844-1.783 9.145-4.799l20.674 3.625c-3.655 10.8-18.95 18.59-30.9 18.59-23.682 0-27.445-17.434-26.48-27.198l-5.723 24.352h-26.431L156.998.194h26.429l-12.98 54.872c5.032-13.846 17.013-24.091 32.608-24.091 11.054 0 22.812 5.897 25.749 18.414l3.319-14.4 9.08.003 5.53-23.531h26.432l-5.6 23.53h4.927l5.605-23.53h26.414l-5.575 23.525 9.225.01s-.933 4.44-1.918 8.44c6.212-7.592 15.256-12.484 26.002-12.484zm-124.93 23.575c1.16-9.424-12.382-7.708-14.596-.093l14.596.093zm129.23-.04c1.145-9.413-12.386-7.64-14.607-.04l14.607.04zM361.578 33.2h.849c.72 0 1.376-.037 1.376-.867 0-.699-.599-.806-1.149-.806h-1.076V33.2zm-.813-2.336h2.023c1.243 0 1.83.495 1.83 1.505 0 .95-.6 1.347-1.377 1.433l1.496 2.321h-.873l-1.425-2.263h-.861v2.263h-.813v-5.259zm1.747 6.475c2.07 0 3.672-1.66 3.672-3.864 0-2.152-1.602-3.814-3.672-3.814-2.094 0-3.699 1.662-3.699 3.814 0 2.204 1.605 3.864 3.699 3.864zm0-8.339c2.44 0 4.488 1.938 4.488 4.475A4.475 4.475 0 0 1 362.512 38c-2.455 0-4.512-1.936-4.512-4.525 0-2.537 2.057-4.475 4.512-4.475z"/>
    </g>
</svg>
