<svg xmlns="http://www.w3.org/2000/svg" width="29" height="24" viewBox="0 0 29 24">
    <path fill="#182F6E" fill-rule="evenodd" d="M28.2.444a11.746 11.746 0 0 1-3.78 1.468A5.887 5.887 0 0 0 20.076 0c-3.283 0-5.948 2.713-5.948 6.059 0 .475.052.935.154 1.38-4.945-.254-9.328-2.663-12.264-6.333a6.136 6.136 0 0 0-.806 3.05c0 2.1 1.05 3.955 2.648 5.042a5.872 5.872 0 0 1-2.697-.756v.074c0 2.937 2.05 5.387 4.775 5.941a5.709 5.709 0 0 1-1.568.214c-.383 0-.757-.037-1.12-.108.758 2.406 2.953 4.159 5.557 4.206a11.8 11.8 0 0 1-7.389 2.594c-.48 0-.954-.027-1.419-.083A16.644 16.644 0 0 0 9.12 24c10.945 0 16.928-9.23 16.928-17.238 0-.264-.004-.527-.014-.785A12.156 12.156 0 0 0 29 2.841a11.715 11.715 0 0 1-3.416.954A6.053 6.053 0 0 0 28.2.444"/>
</svg>
