<svg xmlns="http://www.w3.org/2000/svg" class="" name="t_5_precision_blades" fill-rule="evenodd" role="img" fill="#182f6e" aria-label="" height="32" width="32"><path d="M24.1 19.2l-.9 1.6h-2.6l-.7.9h.6c1.5 0 2 .8 1.4 2.2-.9 1.7-2.6 2.7-4.5 2.8-.6 0-1.2-.1-1.7-.4-.2-.1-.4-.3-.6-.4l1.3-1.6c.2.3.6.6 1 .7.3.1.5.1.8.1.8 0 1.6-.4 1.9-1.1.3-.7 0-1.1-1-1.1-.6 0-1.3.1-1.9.3l3.1-3.9h3.8z"></path><path d="M.2 8.9v-3h23.3l-2.6 3zm0 4.4v-3.1h21.2l-2.5 3.1zm0 4.3v-3.1h19.2l-2.6 3.1zm0 4.3v-3h17.1l-2.5 3zm0 4.3v-3h15.1l-2.6 3zm26.7-12.6c2.3 1.2-1.7-.7 4.3 2.4-.8-.4-1.9-1.4-4-2.9s-1.7-1.9-1.7-1.9l.4-.2c1.9-.7 3.9-1.3 5.9-1.8-2.1.4-4 .9-6 1.1h-.4s-.2-.8.7-2.9c0 0 .3-.7.9-2-1 1.7-1.7 2.8-1.8 3.1-.9 1.6-1 1.7-1.3 2.1l-.6.9c-.1.2-1.7 2.9-1.9 3.2-.9 1.4-.7 1-2.4 4l1.1-1.6c.7-1.1 1-1.2 1.8-2.3 1.5-2 1.9-1.7 1.9-1.7.1.1.1.3.2.4.7 2 1.1 4 1.8 6-.5-2-.9-4.1-1.1-6.2v-.5c-.3.1-.1-.4 2.2.8"></path></svg>