<svg xmlns="http://www.w3.org/2000/svg" width="20" height="20" viewBox="0 0 20 20">
    <g fill="none" fill-rule="evenodd">
        <path fill="none" d="M0 0h20v20H0z"/>
        <path fill="#182F6E" d="M19.858 9.555C19.668 9.322 15.417 4 10.008 4 4.598 4 .348 9.322.158 9.555a.707.707 0 0 0 0 .89c.19.233 4.44 5.555 9.85 5.555 5.409 0 9.66-5.343 9.85-5.555a.769.769 0 0 0 0-.89zM10 14c-2.213 0-4-1.787-4-4s1.787-4 4-4 4 1.787 4 4-1.787 4-4 4zm0-1.5a2.5 2.5 0 1 0 0-5 2.5 2.5 0 0 0 0 5z"/>
    </g>
</svg>
