<svg xmlns="http://www.w3.org/2000/svg" class="" name="t_flexball" fill-rule="evenodd" role="img" fill="#182f6e" aria-label="" height="32" width="32"><path d="M15.4 9.4l10.3 4.3.2-.4-10.4-4.4zm-.3.8l10.3 4.3.2-.4-10.4-4.3zm-.3.7l10.3 4.3.2-.4-10.4-4.3zm-.2.8l10.1 4.2.2-.4-10.2-4.2z"></path><path d="M27.6 13.3l-.4-.3.4-.9-12.5-5.3-.4 1.1h-.6s-.3 1.4-.4 1.8c-1.1 1.6-.5 2.6-.3 2.8.1.9.4 1.8.8 2.5h.2c1.3-.2 2.7-.1 4 .4 1.6.5 3 1.6 3.9 3.1h.3c.9-.2 1.7-.7 2.4-1.3.2 0 1.4-.3 1.7-2.1l.9-1.6v-.2zM24 16.4c-.4-.2-.6-.3-.7-.5-.1-.2-7.9-3.3-7.9-3.3h-.7c-.1 0-1.4-.5-.4-3.1.4-1.1.6-1.6.7-1.7l.2-.4.8.3-.4.9L26 12.9l.4-.9.7.3c0-.1-.5 1.3-.9 2.2-.6 1.4-1.3 2.3-2.2 1.9z"></path><path d="M27.1 25.1L25.2 21l-.7.9c-1.5-.7-3.1-1.3-4.8-1.7.9.1 1.8.3 2.7.6-.7-2.8-3.2-4.7-6-4.8h-.7c-2.8.1-5.3 2-6 4.8.9-.3 1.8-.5 2.8-.6-1.6.4-3.2 1-4.8 1.7l-.6-.9-1.9 4.1 4.5-.5-.6-.8c1-.6 2-1.1 3-1.5 0-1.7 1-3.2 2.6-3.8l.5-.1h2c1.7.5 2.9 2.1 2.9 3.9 1 .4 2 .9 3 1.5l-.6.8 4.6.5z"></path><path d="M19.1 22.2c0 1.6-1.3 3-2.9 3-1.6 0-3-1.3-3-2.9 0-1.6 1.3-3 2.9-3 1.7 0 3 1.3 3 2.9z"></path></svg>