<svg  xmlns="http://www.w3.org/2000/svg" class="" name="t_lubrication_strip" fill-rule="evenodd" role="img" fill="#182f6e" aria-label="" height="32" width="32"><path d="M19 19.6H5.5c.4.9.9 1.8 1.5 2.6.3.3.9.5 1.2 1 .3.5.5.9.7 1.5l1 2.6h11.7l1-2.5.2-1.2 1.7-1.3 1.4-2.6-6.9-.1z"></path><path d="M5.3 15.4h20.8v1H5.3z"></path><path d="M5.3 16.4l.2.6h20.3l.2-.6zm.6 1.1l1.4.7H24l1.4-.7z"></path><path d="M27 14.6v-3.4c0-.6-.4-1.1-1-1.1h-2.1c0 .3-.1.5-.2.7h.6v.6h-.8c-.1.2-.3.4-.5.6h1.9v.4h-2.5l-.6.3h3.1v.3H6.4v-.4h13.9l-.6-.3H6.4v-.4h12.7c-.2-.2-.3-.4-.5-.6H7v-.6h11.4c-.1-.2-.2-.5-.2-.7H5.3c-.6 0-1 .5-1 1.1v3.4c-.2.3-.3.6-.3 1v2.2c0 .7.4 1.4 1.1 1.7l.2.1c.3 1.6 1.4 3.1 2.9 3.8 0 .2 1.6 3.9 1.6 3.9h2.8v-.4h-2.4c-.5-1.3-1-2.5-1.6-3.7V23h-.1c-1.3-.7-2.3-1.9-2.7-3.3.3.1.7.3 1.1.3h17.5c.4 0 .8-.1 1.2-.3-.3 1.5-1.3 2.7-2.7 3.3h-.1s-1.6 3.5-1.6 3.8h-2.4v.4h2.8s1.6-3.7 1.6-3.9c1.5-.8 2.5-2.2 2.9-3.8l.2-.1c.7-.3 1.1-.9 1.1-1.7v-2.2c-.1-.3-.2-.7-.4-.9zm-2.5-3v-1.2H26c.3 0 .6.3.6.7v.6c-.1-.1-.3-.2-.4-.2V11c0-.2-.1-.3-.3-.3h-.8c-.2 0-.3.1-.3.3v.6h-.3zm1.4 3.6h-.8V11h.8v4.2zM6.5 13.3h18.4v.4H6.5v-.4zm18.3 1.1H6.4V14h18.4v.4zm0 .7H6.4v-.4h18.4v.4zm-20.1-4c0-.3.2-.6.6-.7h1.4v1.1h-.3V11c0-.2-.1-.3-.3-.3h-.7c-.1 0-.1 0-.2.1s-.1.1-.1.2v.5c-.2 0-.3.1-.4.2v-.6zm1.5 4.1h-.8V11h.8v4.2zm20.7 2.5c0 .5-.3.9-.7 1.2.3-.2 0 0-.4.2s-.9.3-1.4.4H6.8l-1.2-.3c-.2-.1-.3-.2-.5-.3-.4-.3-.7-.7-.7-1.2v-2.1c0-.3.1-.5.2-.8v-2.2c0-.3.2-.5.4-.6v3.7c-.1 1.3.9 2.4 2.2 2.5h6.2l.2-.2H7.3c-.6 0-1.1-.2-1.5-.7-.4-.4-.6-1-.6-1.6v-.2H26v.2c.1 1.2-.8 2.2-2 2.3h-6.4l.2.2H24c1.3-.1 2.3-1.2 2.2-2.5V12c.3.1.4.4.4.6v2.2c.2.2.2.5.2.8l.1 2.1z"></path><path d="M21.3 4.2c0-.2-.1-.2-.2-.2s-.1.1-.1.1C20.2 6 18.5 8 18.5 9.4c-.1 1.5 1.1 2.8 2.6 2.8 1.5-.1 2.7-1.3 2.6-2.8 0-1.4-1.6-3.3-2.4-5.2"></path></svg>