<svg xmlns="http://www.w3.org/2000/svg" class="" name="t_precision_trimmer" fill-rule="evenodd" role="img" fill="#182f6e" aria-label="" height="32" width="32"><path d="M21.5 27.1S23 24 23 23.8c1.4-.6 2.4-1.8 2.7-3.2l.2-.1c.6-.2 1.1-.8 1.1-1.4v-1.8c0-.3-.1-.6-.3-.8v-2.9c0-.5-.4-1-1-1H6.2c-.5 0-1 .4-1 1v2.9c-.2.2-.3.5-.3.8v1.8c0 .7.4 1.2 1.1 1.4.1 0 .1.1.2.1.3 1.5 1.3 2.7 2.7 3.3 0 .2 1.4 3.3 1.4 3.3m14.1-14.3h1.3c.3 0 .6.2.6.6v.5c-.1-.1-.3-.1-.4-.2v-.4c0-.1-.1-.3-.3-.3h-.7c-.1 0-.3.1-.3.3v.5h-.3l.1-1zm.8 5.8l-.2.2H7c-.2-.1-.3-.3-.4-.4h18.9c-.2 0-.2.1-.3.2zM6.3 16.9v-3.5H7v3.5h-.7zm1-2.2h17.4v.4H7.3v-.4zm0-.2v-.4h17.4v.4H7.3zm17.4.9v.3H7.3v-.3h17.4zm0 .6v.4H7.3V16h17.4zm0 .5v.4H7.3v-.4h17.4zm.2.4v-3.5h.7v3.5h-.7zM7.8 13.2h16.3v.5H7.8v-.5zm-2.2.3c0-.3.2-.6.6-.6h1.4v1h-.3v-.5c0-.1-.1-.3-.3-.3h-.7c-.1 0-.3.1-.3.3v.4c-.1 0-.3.1-.4.2v-.5zm21 5.6c0 .4-.3.8-.6 1-.1 0-.2.1-.4.2-.4.2-.8.3-1.3.3H7.6c-.4 0-.8-.1-1.1-.3-.2 0-.3-.1-.5-.2-.4-.2-.6-.6-.7-1v-1.8c0-.2.1-.5.2-.7v-1.8c0-.2.2-.5.4-.5V17H6v.3c0 1.2.9 2.1 2.1 2.1h15.8c.9 0 1.7-.6 2-1.4.1-.2.1-.5.1-.7v-3.1c.2.1.4.3.4.5v1.8c.1.2.2.4.2.7v1.9z"></path><path d="M18.2 5v3h1.9L16 12l-4-4h1.9V5z"></path></svg>